<?xml version="1.0" encoding="UTF-8"?>
<svg width="1024px" height="1024px" viewBox="0 0 1024 1024" xmlns="http://www.w3.org/2000/svg" xmlns:xlink="http://www.w3.org/1999/xlink" version="1.1">
 <!-- Generated by Pixelmator Pro 2.0.1 -->
 <g id="New-Group">
  <path id="outside" d="M512 1024 C229.23 1024 0 794.77 0 512 0 229.231 229.23 0 512 0 794.769 0 1024 229.231 1024 512 1024 794.77 794.769 1024 512 1024 Z M720.123 862.932 C818.513 863.207 918.4 844.162 918.4 814.445 918.4 712.36 832.439 629.604 726.4 629.604 620.362 629.604 534.4 712.36 534.4 814.445 552.956 848.334 635.992 862.696 720.123 862.932 Z M301.031 752 C301.707 752.007 302.438 751.936 303.223 751.787 305.314 751.391 307.562 750.365 309.965 748.709 L393.107 691.477 C395.301 689.954 397.179 688.282 398.738 686.459 L332.982 650.98 C332.263 651.892 331.621 652.828 331.051 653.783 330.395 654.882 329.838 656.009 329.381 657.166 L296.518 741.451 C295.563 743.889 295.259 745.966 295.605 747.678 295.952 749.39 296.783 750.602 298.104 751.314 298.929 751.76 299.905 751.988 301.031 752 Z M415.646 665.85 L650.59 379.361 584.826 343.879 349.883 630.369 415.646 665.85 Z M726.4 597.559 C770.128 597.559 805.574 561.69 805.574 517.445 805.574 473.2 770.128 437.334 726.4 437.334 682.673 437.334 647.225 473.2 647.225 517.445 647.225 561.69 682.673 597.559 726.4 597.559 Z M225.127 503.465 C316.138 503.716 408.533 486.308 408.533 459.143 408.533 365.819 329.019 290.164 230.934 290.164 132.848 290.164 53.334 365.819 53.334 459.143 70.498 490.123 147.306 503.25 225.127 503.465 Z M667.58 358.646 L680.318 343.111 C692.398 328.382 687.47 308.495 669.311 298.697 651.151 288.899 626.636 292.897 614.557 307.627 L601.816 323.164 667.58 358.646 Z M230.934 260.869 C271.381 260.869 304.17 228.078 304.17 187.631 304.17 147.183 271.381 114.395 230.934 114.395 190.486 114.395 157.695 147.183 157.695 187.631 157.695 228.078 190.486 260.869 230.934 260.869 Z" fill="#8e7cc3" fill-opacity="1" stroke="none"/>
  <path id="inside" d="M720.123 862.931 C635.992 862.696 552.956 848.335 534.4 814.446 534.4 712.361 620.361 629.604 726.4 629.604 832.439 629.604 918.4 712.361 918.4 814.446 918.4 844.162 818.513 863.207 720.123 862.931 Z M301.031 752 C299.905 751.988 298.929 751.76 298.104 751.315 296.784 750.602 295.953 749.389 295.606 747.677 295.259 745.965 295.562 743.89 296.517 741.452 L329.381 657.167 C329.839 656.009 330.395 654.882 331.05 653.783 331.62 652.828 332.264 651.893 332.983 650.981 L398.737 686.458 C397.178 688.281 395.302 689.954 393.108 691.477 L309.965 748.708 C307.562 750.365 305.314 751.391 303.223 751.787 302.439 751.936 301.707 752.007 301.031 752 Z M415.646 665.85 L349.883 630.369 584.827 343.879 650.59 379.36 415.646 665.85 Z M726.4 597.558 C682.673 597.558 647.225 561.691 647.225 517.446 647.225 473.201 682.673 437.333 726.4 437.333 770.127 437.333 805.575 473.201 805.575 517.446 805.575 561.691 770.127 597.558 726.4 597.558 Z M225.127 503.465 C147.306 503.249 70.497 490.122 53.333 459.142 53.333 365.818 132.848 290.165 230.933 290.165 329.019 290.165 408.533 365.818 408.533 459.142 408.533 486.308 316.138 503.716 225.127 503.465 Z M667.579 358.646 L601.817 323.165 614.556 307.627 C626.636 292.897 651.151 288.9 669.31 298.698 687.47 308.496 692.398 328.381 680.319 343.11 L667.579 358.646 Z M230.933 260.869 C190.486 260.869 157.696 228.079 157.696 187.631 157.696 147.184 190.486 114.394 230.933 114.394 271.381 114.394 304.171 147.184 304.171 187.631 304.171 228.079 271.381 260.869 230.933 260.869 Z" fill="#ffffff" fill-opacity="1" stroke="none"/>
 </g>
</svg>
